<svg width="680" height="680" viewBox="0 0 680 680" fill="none" xmlns="http://www.w3.org/2000/svg">
<rect width="680" height="680" fill="#0A0A0A"/>
<g opacity="0.6">
<path d="M340 100L380 140L340 180L300 140L340 100Z" fill="#1E40AF" opacity="0.3"/>
<path d="M340 120L360 140L340 160L320 140L340 120Z" fill="#3B82F6"/>
</g>
<rect x="200" y="200" width="120" height="80" rx="8" fill="#1F2937" stroke="#374151" stroke-width="2"/>
<rect x="210" y="210" width="20" height="20" rx="4" fill="#EF4444"/>
<rect x="240" y="210" width="20" height="20" rx="4" fill="#F59E0B"/>
<rect x="270" y="210" width="20" height="20" rx="4" fill="#10B981"/>
<text x="210" y="250" fill="#9CA3AF" font-family="monospace" font-size="10">Different styles</text>
<rect x="360" y="200" width="120" height="80" rx="8" fill="#1F2937" stroke="#374151" stroke-width="2"/>
<rect x="370" y="210" width="100" height="4" rx="2" fill="#6B7280"/>
<rect x="370" y="220" width="80" height="4" rx="2" fill="#6B7280"/>
<rect x="370" y="230" width="60" height="4" rx="2" fill="#6B7280"/>
<text x="370" y="250" fill="#9CA3AF" font-family="monospace" font-size="10">Broken layouts</text>
<rect x="200" y="320" width="120" height="80" rx="8" fill="#1F2937" stroke="#374151" stroke-width="2"/>
<rect x="210" y="330" width="15" height="15" rx="2" fill="#8B5CF6"/>
<rect x="230" y="330" width="25" height="15" rx="2" fill="#8B5CF6"/>
<rect x="210" y="350" width="35" height="15" rx="2" fill="#8B5CF6"/>
<text x="210" y="370" fill="#9CA3AF" font-family="monospace" font-size="10">Wrong sizing</text>
<rect x="360" y="320" width="120" height="80" rx="8" fill="#1F2937" stroke="#374151" stroke-width="2"/>
<circle cx="390" cy="340" r="8" fill="#6B7280"/>
<circle cx="410" cy="340" r="8" fill="#6B7280"/>
<circle cx="430" cy="340" r="8" fill="#6B7280"/>
<rect x="370" y="355" width="100" height="8" rx="4" fill="#F59E0B"/>
<text x="370" y="380" fill="#9CA3AF" font-family="monospace" font-size="10">Not accessible</text>
<rect x="200" y="440" width="120" height="80" rx="8" fill="#1F2937" stroke="#374151" stroke-width="2"/>
<rect x="210" y="450" width="100" height="4" rx="2" fill="#6B7280"/>
<rect x="210" y="460" width="100" height="4" rx="2" fill="#6B7280"/>
<rect x="210" y="470" width="100" height="4" rx="2" fill="#6B7280"/>
<text x="210" y="490" fill="#9CA3AF" font-family="monospace" font-size="10">Unclear navigation</text>
<rect x="360" y="440" width="120" height="80" rx="8" fill="#1F2937" stroke="#374151" stroke-width="2"/>
<path d="M370 450L390 470L410 450L430 470L450 450L470 470" stroke="#8B5CF6" stroke-width="2" fill="none"/>
<path d="M370 460L390 480L410 460L430 480L450 460L470 480" stroke="#8B5CF6" stroke-width="2" fill="none"/>
<text x="370" y="500" fill="#9CA3AF" font-family="monospace" font-size="10">Confusing UX-flows</text>
</svg> 