<svg width="680" height="680" viewBox="0 0 680 680" fill="none" xmlns="http://www.w3.org/2000/svg">
<rect width="680" height="680" fill="#0A0A0A"/>
<g opacity="0.6">
<path d="M340 100L380 140L340 180L300 140L340 100Z" fill="#1E40AF" opacity="0.3"/>
<path d="M340 120L360 140L340 160L320 140L340 120Z" fill="#3B82F6"/>
</g>
<g stroke="#3B82F6" stroke-width="2" fill="none" opacity="0.6">
<path d="M200 300L280 250" stroke-dasharray="4,4"/>
<path d="M280 250L360 300" stroke-dasharray="4,4"/>
<path d="M360 300L440 250" stroke-dasharray="4,4"/>
<path d="M440 250L520 300" stroke-dasharray="4,4"/>
<path d="M200 300L280 350" stroke-dasharray="4,4"/>
<path d="M280 350L360 300" stroke-dasharray="4,4"/>
<path d="M360 300L440 350" stroke-dasharray="4,4"/>
<path d="M440 350L520 300" stroke-dasharray="4,4"/>
<path d="M280 250L360 200" stroke-dasharray="4,4"/>
<path d="M360 200L440 250" stroke-dasharray="4,4"/>
<path d="M280 350L360 400" stroke-dasharray="4,4"/>
<path d="M360 400L440 350" stroke-dasharray="4,4"/>
</g>
<rect x="170" y="270" width="60" height="60" rx="8" fill="#1F2937" stroke="#3B82F6" stroke-width="2"/>
<rect x="180" y="280" width="40" height="8" rx="4" fill="#3B82F6"/>
<rect x="180" y="295" width="30" height="6" rx="3" fill="#6B7280"/>
<rect x="180" y="305" width="35" height="6" rx="3" fill="#6B7280"/>
<text x="180" y="325" fill="#3B82F6" font-family="monospace" font-size="8">Unified styling</text>
<rect x="490" y="270" width="60" height="60" rx="8" fill="#1F2937" stroke="#10B981" stroke-width="2"/>
<rect x="500" y="280" width="15" height="15" rx="2" fill="#10B981"/>
<rect x="520" y="280" width="25" height="15" rx="2" fill="#10B981"/>
<rect x="500" y="300" width="35" height="15" rx="2" fill="#10B981"/>
<text x="500" y="325" fill="#10B981" font-family="monospace" font-size="8">Unified sizing</text>
<rect x="330" y="170" width="60" height="60" rx="8" fill="#1F2937" stroke="#F59E0B" stroke-width="2"/>
<rect x="340" y="180" width="40" height="4" rx="2" fill="#F59E0B"/>
<rect x="340" y="190" width="30" height="4" rx="2" fill="#F59E0B"/>
<rect x="340" y="200" width="35" height="4" rx="2" fill="#F59E0B"/>
<text x="340" y="220" fill="#F59E0B" font-family="monospace" font-size="8">Clean & clear layouts</text>
<rect x="490" y="520" width="120" height="80" rx="8" fill="#1F2937" stroke="#374151" stroke-width="2"/>
<circle cx="520" cy="540" r="4" fill="#6B7280"/>
<circle cx="540" cy="540" r="4" fill="#6B7280"/>
<circle cx="560" cy="540" r="4" fill="#6B7280"/>
<rect x="500" y="555" width="100" height="8" rx="4" fill="#10B981"/>
<circle cx="580" cy="545" r="6" fill="#10B981"/>
<text x="500" y="580" fill="#10B981" font-family="monospace" font-size="8">Intuitive navigation</text>
<rect x="170" y="520" width="120" height="80" rx="8" fill="#1F2937" stroke="#EF4444" stroke-width="2"/>
<circle cx="200" cy="540" r="8" fill="#EF4444"/>
<rect x="220" y="535" width="60" height="10" rx="5" fill="#EF4444"/>
<text x="180" y="580" fill="#EF4444" font-family="monospace" font-size="8">WCAG-accessible</text>
<rect x="330" y="370" width="60" height="60" rx="8" fill="#1F2937" stroke="#8B5CF6" stroke-width="2"/>
<path d="M340 380L360 400L380 380L360 390L340 380" fill="#8B5CF6"/>
<path d="M340 390L360 410L380 390L360 400L340 390" fill="#8B5CF6" opacity="0.6"/>
<text x="340" y="425" fill="#8B5CF6" font-family="monospace" font-size="8">UX-flows guiding users</text>
<circle cx="200" cy="300" r="4" fill="#3B82F6"/>
<circle cx="280" cy="250" r="4" fill="#F59E0B"/>
<circle cx="360" cy="200" r="4" fill="#F59E0B"/>
<circle cx="440" cy="250" r="4" fill="#F59E0B"/>
<circle cx="520" cy="300" r="4" fill="#10B981"/>
<circle cx="280" cy="350" r="4" fill="#EF4444"/>
<circle cx="360" cy="300" r="4" fill="#6B7280"/>
<circle cx="440" cy="350" r="4" fill="#8B5CF6"/>
<circle cx="360" cy="400" r="4" fill="#8B5CF6"/>
</svg> 