<svg width="400" height="400" viewBox="0 0 400 400" fill="none" xmlns="http://www.w3.org/2000/svg">
  <!-- Background circle -->
  <circle cx="200" cy="200" r="180" fill="#F8FAFC" stroke="#E2E8F0" stroke-width="2"/>
  
  <!-- Central confusion/question mark area -->
  <circle cx="200" cy="200" r="60" fill="white" stroke="#E2E8F0" stroke-width="2" stroke-dasharray="8,8"/>
  
  <!-- Large question mark -->
  <circle cx="200" cy="180" r="15" fill="none" stroke="#6B7280" stroke-width="3"/>
  <path d="M190 175 Q190 165, 200 165 Q210 165, 210 175 Q210 185, 200 185" stroke="#6B7280" stroke-width="3" fill="none"/>
  <circle cx="200" cy="205" r="3" fill="#6B7280"/>
  
  <!-- Scattered target elements -->
  <!-- Target 1 - top left -->
  <circle cx="120" cy="100" r="25" fill="none" stroke="#EF4444" stroke-width="2"/>
  <circle cx="120" cy="100" r="15" fill="none" stroke="#EF4444" stroke-width="2"/>
  <circle cx="120" cy="100" r="5" fill="#EF4444"/>
  <path d="M95 100 L145 100 M120 75 L120 125" stroke="#EF4444" stroke-width="1" opacity="0.5"/>
  
  <!-- Target 2 - top right -->
  <circle cx="280" cy="120" r="25" fill="none" stroke="#F59E0B" stroke-width="2"/>
  <circle cx="280" cy="120" r="15" fill="none" stroke="#F59E0B" stroke-width="2"/>
  <circle cx="280" cy="120" r="5" fill="#F59E0B"/>
  <path d="M255 120 L305 120 M280 95 L280 145" stroke="#F59E0B" stroke-width="1" opacity="0.5"/>
  
  <!-- Target 3 - bottom left -->
  <circle cx="100" cy="280" r="25" fill="none" stroke="#8B5CF6" stroke-width="2"/>
  <circle cx="100" cy="280" r="15" fill="none" stroke="#8B5CF6" stroke-width="2"/>
  <circle cx="100" cy="280" r="5" fill="#8B5CF6"/>
  <path d="M75 280 L125 280 M100 255 L100 305" stroke="#8B5CF6" stroke-width="1" opacity="0.5"/>
  
  <!-- Target 4 - bottom right -->
  <circle cx="300" cy="300" r="25" fill="none" stroke="#10B981" stroke-width="2"/>
  <circle cx="300" cy="300" r="15" fill="none" stroke="#10B981" stroke-width="2"/>
  <circle cx="300" cy="300" r="5" fill="#10B981"/>
  <path d="M275 300 L325 300 M300 275 L300 325" stroke="#10B981" stroke-width="1" opacity="0.5"/>
  
  <!-- Confused arrows pointing in different directions -->
  <path d="M160 160 L140 140" stroke="#94A3B8" stroke-width="2" stroke-linecap="round"/>
  <path d="M135 145 L140 140 L145 145" stroke="#94A3B8" stroke-width="2" stroke-linecap="round" fill="none"/>
  
  <path d="M240 160 L260 140" stroke="#94A3B8" stroke-width="2" stroke-linecap="round"/>
  <path d="M255 145 L260 140 L265 145" stroke="#94A3B8" stroke-width="2" stroke-linecap="round" fill="none"/>
  
  <path d="M160 240 L140 260" stroke="#94A3B8" stroke-width="2" stroke-linecap="round"/>
  <path d="M135 255 L140 260 L145 255" stroke="#94A3B8" stroke-width="2" stroke-linecap="round" fill="none"/>
  
  <path d="M240 240 L260 260" stroke="#94A3B8" stroke-width="2" stroke-linecap="round"/>
  <path d="M255 255 L260 260 L265 255" stroke="#94A3B8" stroke-width="2" stroke-linecap="round" fill="none"/>
  
  <!-- Scattered message bubbles -->
  <ellipse cx="80" cy="180" rx="25" ry="15" fill="white" stroke="#E2E8F0" stroke-width="2"/>
  <rect x="65" y="175" width="30" height="3" rx="1.5" fill="#94A3B8"/>
  <rect x="70" y="182" width="20" height="3" rx="1.5" fill="#94A3B8" opacity="0.6"/>
  <path d="M80 195 L85 205 L75 200 Z" fill="white" stroke="#E2E8F0" stroke-width="2"/>
  
  <ellipse cx="320" cy="200" rx="25" ry="15" fill="white" stroke="#E2E8F0" stroke-width="2"/>
  <rect x="305" y="195" width="30" height="3" rx="1.5" fill="#94A3B8"/>
  <rect x="310" y="202" width="20" height="3" rx="1.5" fill="#94A3B8" opacity="0.6"/>
  <path d="M320 215 L325 225 L315 220 Z" fill="white" stroke="#E2E8F0" stroke-width="2"/>
  
  <!-- Confusion lines/zigzags around center -->
  <path d="M150 150 Q160 140, 170 150 T190 150" stroke="#FCA5A5" stroke-width="2" fill="none" opacity="0.6"/>
  <path d="M210 150 Q220 140, 230 150 T250 150" stroke="#FCA5A5" stroke-width="2" fill="none" opacity="0.6"/>
  <path d="M150 250 Q160 260, 170 250 T190 250" stroke="#FCA5A5" stroke-width="2" fill="none" opacity="0.6"/>
  <path d="M210 250 Q220 260, 230 250 T250 250" stroke="#FCA5A5" stroke-width="2" fill="none" opacity="0.6"/>
</svg> 