<svg width="400" height="400" viewBox="0 0 400 400" fill="none" xmlns="http://www.w3.org/2000/svg">
  <!-- Background circle -->
  <circle cx="200" cy="200" r="180" fill="#F8FAFC" stroke="#E2E8F0" stroke-width="2"/>
  
  <!-- Broken UI elements -->
  <rect x="80" y="120" width="240" height="160" rx="12" fill="white" stroke="#E2E8F0" stroke-width="2"/>
  
  <!-- Broken/misaligned elements -->
  <rect x="100" y="140" width="80" height="12" rx="6" fill="#EF4444"/>
  <rect x="190" y="140" width="60" height="12" rx="6" fill="#EF4444" opacity="0.5"/>
  <rect x="260" y="140" width="40" height="12" rx="6" fill="#EF4444" opacity="0.3"/>
  
  <!-- Misaligned buttons -->
  <rect x="100" y="170" width="70" height="32" rx="8" fill="#FEE2E2" stroke="#EF4444" stroke-width="1" stroke-dasharray="4,4"/>
  <rect x="180" y="175" width="70" height="32" rx="8" fill="#FEE2E2" stroke="#EF4444" stroke-width="1" stroke-dasharray="4,4"/>
  <rect x="260" y="172" width="50" height="32" rx="8" fill="#FEE2E2" stroke="#EF4444" stroke-width="1" stroke-dasharray="4,4"/>
  
  <!-- Broken layout lines -->
  <path d="M100 220 L300 220" stroke="#EF4444" stroke-width="2" stroke-dasharray="8,8" opacity="0.6"/>
  <path d="M100 240 L280 240" stroke="#EF4444" stroke-width="2" stroke-dasharray="8,8" opacity="0.4"/>
  <path d="M100 260 L250 260" stroke="#EF4444" stroke-width="2" stroke-dasharray="8,8" opacity="0.3"/>
  
  <!-- Warning icon -->
  <circle cx="320" cy="130" r="16" fill="#FEF3C7"/>
  <path d="M320 122 L320 130 M320 134 L320 134" stroke="#F59E0B" stroke-width="2" stroke-linecap="round"/>
</svg> 