<svg width="400" height="400" viewBox="0 0 400 400" fill="none" xmlns="http://www.w3.org/2000/svg">
  <!-- Background circle -->
  <circle cx="200" cy="200" r="180" fill="#F8FAFC" stroke="#E2E8F0" stroke-width="2"/>
  
  <!-- Fragmented design pieces -->
  <!-- Piece 1 -->
  <rect x="60" y="80" width="80" height="80" rx="12" fill="white" stroke="#3B82F6" stroke-width="2"/>
  <circle cx="100" cy="120" r="20" fill="#DBEAFE"/>
  <rect x="85" y="135" width="30" height="4" rx="2" fill="#3B82F6"/>
  <rect x="85" y="145" width="20" height="4" rx="2" fill="#3B82F6" opacity="0.6"/>
  
  <!-- Piece 2 -->
  <rect x="180" y="100" width="80" height="80" rx="12" fill="white" stroke="#10B981" stroke-width="2"/>
  <rect x="195" y="115" width="50" height="8" rx="4" fill="#10B981"/>
  <rect x="195" y="130" width="35" height="8" rx="4" fill="#10B981" opacity="0.7"/>
  <rect x="195" y="145" width="45" height="8" rx="4" fill="#10B981" opacity="0.5"/>
  <circle cx="220" cy="165" r="8" fill="#D1FAE5"/>
  
  <!-- Piece 3 -->
  <rect x="280" y="120" width="80" height="80" rx="12" fill="white" stroke="#F59E0B" stroke-width="2"/>
  <rect x="295" y="135" width="15" height="15" rx="3" fill="#FEF3C7"/>
  <rect x="315" y="135" width="15" height="15" rx="3" fill="#FEF3C7"/>
  <rect x="335" y="135" width="15" height="15" rx="3" fill="#FEF3C7"/>
  <rect x="295" y="160" width="50" height="6" rx="3" fill="#F59E0B"/>
  <rect x="295" y="175" width="35" height="6" rx="3" fill="#F59E0B" opacity="0.6"/>
  
  <!-- Piece 4 -->
  <rect x="100" y="220" width="80" height="80" rx="12" fill="white" stroke="#8B5CF6" stroke-width="2"/>
  <circle cx="140" cy="260" r="25" fill="white" stroke="#8B5CF6" stroke-width="2"/>
  <rect x="125" y="275" width="30" height="4" rx="2" fill="#8B5CF6"/>
  <rect x="130" y="285" width="20" height="4" rx="2" fill="#8B5CF6" opacity="0.6"/>
  
  <!-- Piece 5 -->
  <rect x="220" y="240" width="80" height="80" rx="12" fill="white" stroke="#EF4444" stroke-width="2"/>
  <rect x="235" y="255" width="50" height="20" rx="10" fill="#FEE2E2" stroke="#EF4444" stroke-width="1"/>
  <rect x="235" y="285" width="30" height="6" rx="3" fill="#EF4444"/>
  <rect x="235" y="300" width="40" height="6" rx="3" fill="#EF4444" opacity="0.6"/>
  
  <!-- Broken connection lines -->
  <path d="M140 160 L220 140" stroke="#94A3B8" stroke-width="2" stroke-dasharray="6,6" opacity="0.5"/>
  <path d="M260 180 L320 160" stroke="#94A3B8" stroke-width="2" stroke-dasharray="6,6" opacity="0.5"/>
  <path d="M140 220 L180 200" stroke="#94A3B8" stroke-width="2" stroke-dasharray="6,6" opacity="0.5"/>
  <path d="M180 280 L220 280" stroke="#94A3B8" stroke-width="2" stroke-dasharray="6,6" opacity="0.5"/>
  
  <!-- Disconnect symbols -->
  <circle cx="180" cy="170" r="8" fill="#FEE2E2"/>
  <path d="M176 166 L184 174 M184 166 L176 174" stroke="#EF4444" stroke-width="2" stroke-linecap="round"/>
  
  <circle cx="200" cy="240" r="8" fill="#FEE2E2"/>
  <path d="M196 236 L204 244 M204 236 L196 244" stroke="#EF4444" stroke-width="2" stroke-linecap="round"/>
</svg> 